<svg xmlns="http://www.w3.org/2000/svg" width="24" height="24" viewBox="0 0 24 24">
    <path fill="#9B9B9B" fill-rule="nonzero" d="M12 6C5.44 6 2 10.747 2 11.5c0 .753 3.44 5.5 10 5.5 6.56 0 10-4.747 10-5.5 0-.753-3.44-5.5-10-5.5zm0 9.73c-2.455 0-4.445-1.893-4.445-4.23 0-2.337 1.99-4.23 4.445-4.23s4.444 1.893 4.444 4.23c0 2.337-1.99 4.23-4.444 4.23zm2.222-4.23c0 1.168-.995 2.116-2.222 2.116-1.227 0-2.222-.948-2.222-2.116 0-1.168.995-2.115 2.222-2.115.663 0-.407 1.676 0 2.115.346.373 2.222-.537 2.222 0z"/>
</svg>
