<?xml version="1.0" encoding="UTF-8" standalone="no"?><!-- Generator: Gravit.io --><svg xmlns="http://www.w3.org/2000/svg" xmlns:xlink="http://www.w3.org/1999/xlink" style="isolation:isolate" viewBox="0 0 238.3 113" width="238.3pt" height="113pt"><defs><clipPath id="_clipPath_8J8Oa8YRRRyoHrhL51eHrJzStBJX9VfZ"><rect width="238.3" height="113"/></clipPath></defs><g clip-path="url(#_clipPath_8J8Oa8YRRRyoHrhL51eHrJzStBJX9VfZ)"><g><g><g/></g><line x1="94.145" y1="76.397" x2="116.779" y2="72.948"/><path d=" M 94.295 77.385 L 116.93 73.937 L 116.629 71.959 L 93.994 75.408" fill="rgb(208,127,67)"/><path d=" M 47.582 51.527 L 90.625 5.614 C 93.117 2.955 97.102 2.342 100.277 4.128 L 153.64 34.133 L 47.582 51.527 Z " fill="rgb(251,187,126)"/><g><g><path d=" M 155.884 98.954 L 64.559 112.868 C 58.533 113.786 52.852 109.607 51.934 103.581 L 45.202 59.394 C 44.284 53.368 48.463 47.686 54.488 46.768 L 145.814 32.855 C 151.839 31.937 157.521 36.116 158.439 42.142 L 165.171 86.329 C 166.089 92.355 161.909 98.036 155.884 98.954 Z " fill="rgb(251,187,126)"/></g></g><path d=" M 50.405 54.692 L 92.403 76.613 L 58.41 106.935 L 59.741 108.427 L 95.894 76.179 L 51.33 52.919 L 50.405 54.692 Z " fill="rgb(208,127,67)"/><path d=" M 151.372 38.493 L 116.782 72.948 L 159.58 92.369" fill="rgb(251,187,126)"/><path d=" M 130.693 21.887 L 65.657 31.795 C 64.493 31.972 63.396 31.165 63.218 30.001 C 63.041 28.837 63.848 27.739 65.012 27.562 L 130.048 17.654 C 131.212 17.476 132.31 18.284 132.486 19.448 C 132.664 20.612 131.857 21.71 130.693 21.887 Z " fill="rgb(0,155,208)"/><g><path d=" M 144.337 69.216 L 66.726 81.04 C 60.986 81.914 55.575 77.934 54.701 72.195 L 48.316 30.283 C 47.441 24.544 51.422 19.132 57.161 18.258 L 134.772 6.434 C 140.512 5.559 145.923 9.54 146.797 15.279 L 153.183 57.191 C 154.057 62.93 150.076 68.342 144.337 69.216 Z " fill="rgb(254,254,254)"/><path d=" M 129.458 56.24 C 102.219 46.862 75.256 36.677 48.719 25.465 C 48.228 26.975 48.061 28.614 48.316 30.283 L 54.701 72.195 C 55.575 77.934 60.986 81.914 66.726 81.04 L 144.337 69.216 C 147.717 68.701 150.477 66.607 152.004 63.805 C 144.471 61.338 136.954 58.821 129.458 56.24 Z " fill="rgb(237,235,235)"/><path d=" M 50.867 53.805 L 94.148 76.396 L 59.075 107.681" fill="rgb(251,187,126)"/><path d=" M 150.666 37.785 L 115.051 73.26 L 159.167 93.28 L 159.993 91.458 L 118.513 72.635 L 152.078 39.202 L 150.667 37.785 L 150.666 37.785 Z " fill="rgb(208,127,67)"/></g><line x1="94.145" y1="76.397" x2="116.779" y2="72.948"/><path d=" M 94.295 77.385 L 116.93 73.937 L 116.629 71.959 L 93.994 75.408" fill="rgb(208,127,67)"/><path d=" M 21.678 40.653 L 21.678 40.653 C 20.756 40.653 20.001 39.899 20.001 38.976 L 20.001 26.997 C 20.001 26.075 20.756 25.32 21.678 25.32 C 22.6 25.32 23.355 26.075 23.355 26.997 L 23.355 38.976 C 23.355 39.899 22.6 40.653 21.678 40.653 Z " fill="rgb(254,254,254)"/><path d=" M 29.344 32.987 L 29.344 32.987 C 29.344 33.909 28.589 34.664 27.667 34.664 L 15.688 34.664 C 14.766 34.664 14.011 33.909 14.011 32.987 C 14.011 32.064 14.766 31.309 15.688 31.309 L 27.667 31.309 C 28.589 31.309 29.344 32.064 29.344 32.987 Z " fill="rgb(254,254,254)"/><path d=" M 190.829 96.665 L 190.829 96.665 C 189.967 96.665 189.262 95.959 189.262 95.097 L 189.262 83.898 C 189.262 83.036 189.967 82.33 190.829 82.33 C 191.692 82.33 192.398 83.036 192.398 83.898 L 192.398 95.097 C 192.398 95.959 191.692 96.665 190.829 96.665 Z " fill="rgb(254,254,254)"/><path d=" M 197.997 89.497 L 197.997 89.497 C 197.997 90.36 197.291 91.065 196.429 91.065 L 185.23 91.065 C 184.367 91.065 183.662 90.36 183.662 89.497 C 183.662 88.635 184.367 87.93 185.23 87.93 L 196.429 87.93 C 197.291 87.93 197.997 88.635 197.997 89.497 Z " fill="rgb(254,254,254)"/><path d=" M 206.667 10.997 C 190.835 10.997 178 22.638 178 36.997 C 178 40.948 178.977 44.691 180.715 48.044 L 172 59.663 L 187.914 56.653 C 192.943 60.602 199.494 62.997 206.667 62.997 C 222.499 62.997 235.334 51.356 235.334 36.997 C 235.334 22.638 222.499 10.997 206.667 10.997 Z " fill="rgb(254,254,254)"/><path d=" M 26.867 65.563 L 1.741 61.487 C 0.616 61.304 -0.155 60.234 0.027 59.11 C 0.21 57.985 1.279 57.214 2.404 57.396 L 27.531 61.473 C 28.656 61.656 29.427 62.725 29.244 63.85 C 29.062 64.975 27.992 65.746 26.867 65.563 Z " fill="rgb(254,254,254)"/><path d=" M 29.827 78.466 L 5.277 85.194 C 4.177 85.494 3.032 84.842 2.731 83.743 C 2.429 82.644 3.082 81.498 4.181 81.197 L 28.731 74.469 C 29.83 74.168 30.976 74.821 31.277 75.92 C 31.578 77.018 30.925 78.164 29.827 78.466 Z " fill="rgb(254,254,254)"/><path d=" M 34.862 90.115 L 16.166 107.389 C 15.329 108.163 14.011 108.111 13.238 107.274 C 12.464 106.437 12.517 105.119 13.354 104.346 L 32.05 87.071 C 32.887 86.298 34.204 86.349 34.978 87.186 C 35.751 88.024 35.699 89.341 34.862 90.115 Z " fill="rgb(254,254,254)"/><g><path d=" M 132.111 31.201 L 67.076 41.109 C 65.912 41.286 64.815 40.479 64.637 39.315 L 64.637 39.314 C 64.46 38.15 65.267 37.053 66.431 36.875 L 131.467 26.967 C 132.631 26.79 133.729 27.597 133.905 28.762 C 134.083 29.926 133.276 31.023 132.111 31.201 Z " fill="rgb(0,155,208)"/><path d=" M 133.595 40.937 L 68.56 50.846 C 67.395 51.023 66.298 50.216 66.12 49.051 C 65.943 47.887 66.751 46.789 67.915 46.612 L 132.95 36.704 C 134.114 36.527 135.212 37.334 135.389 38.498 C 135.567 39.662 134.759 40.76 133.595 40.937 Z " fill="rgb(0,155,208)"/><path d=" M 135.014 50.251 L 69.979 60.159 C 68.814 60.336 67.717 59.529 67.539 58.365 C 67.362 57.201 68.17 56.103 69.334 55.926 L 134.369 46.017 C 135.533 45.84 136.631 46.647 136.808 47.811 C 136.985 48.976 136.178 50.074 135.014 50.251 Z " fill="rgb(0,155,208)"/><path d=" M 221.507 35.101 C 221.507 30.626 217.879 26.999 213.404 26.999 C 210.75 26.999 208.401 28.282 206.923 30.254 C 205.445 28.282 203.096 26.999 200.442 26.999 C 195.967 26.999 192.34 30.625 192.339 35.099 C 192.338 40.895 200.764 46.175 204.802 49.863 C 205.702 50.685 207.076 50.702 207.996 49.901 C 212.411 46.063 221.507 41.813 221.507 35.101 Z " fill="rgb(237,56,100)"/></g></g></g></svg>